<?xml version="1.0" standalone="no"?><!DOCTYPE svg PUBLIC "-//W3C//DTD SVG 1.1//EN" "http://www.w3.org/Graphics/SVG/1.1/DTD/svg11.dtd"><svg t="1671970024695" class="icon" viewBox="0 0 1024 1024" version="1.1" xmlns="http://www.w3.org/2000/svg" p-id="5281" xmlns:xlink="http://www.w3.org/1999/xlink" width="64" height="64"><path d="M512.7168 510.72m-450.816 0a450.816 450.816 0 1 0 901.632 0 450.816 450.816 0 1 0-901.632 0Z" fill="#ff452a" p-id="5282" data-spm-anchor-id="a313x.7781069.0.i0" class="selected"></path><path d="M716.7488 302.2336h-63.744v-1.3312c0-77.3632-62.9248-140.288-140.288-140.288s-140.288 62.9248-140.288 140.288v1.3312H308.6336c-41.4208 0-75.008 33.5872-75.008 75.008v345.6c0 41.4208 33.5872 75.008 75.008 75.008h408.1152c41.4208 0 75.008-33.5872 75.008-75.008v-345.6c0.0512-41.4208-33.536-75.008-75.008-75.008z m-282.0096-1.3312c0-43.008 34.9696-77.9776 77.9776-77.9776s77.9776 34.9696 77.9776 77.9776v1.3312H434.7392v-1.3312z m238.2848 318.9248c-2.6624 3.584-66.1504 87.6032-160.8704 87.6032-94.9248 0-157.3376-84.2752-159.8976-87.8592-10.1376-13.9264-7.0656-33.4336 6.8608-43.52a31.1552 31.1552 0 0 1 43.4688 6.8096c0.8192 1.1264 46.9504 62.2592 109.568 62.2592 62.72 0 110.3872-61.7984 110.848-62.464 10.24-13.824 29.7984-16.6912 43.6224-6.4512 13.7728 10.24 16.64 29.7984 6.4 43.6224z" fill="#FFFFFF" p-id="5283"></path></svg>